<mxfile host="Electron" modified="2024-09-10T13:09:03.885Z" agent="Mozilla/5.0 (Windows NT 10.0; Win64; x64) AppleWebKit/537.36 (KHTML, like Gecko) draw.io/21.2.8 Chrome/112.0.5615.165 Electron/24.2.0 Safari/537.36" etag="yVUY0QnXf-oPn7yU1Dxd" version="21.2.8" type="device">
  <diagram name="Page-1" id="UGivdQ0k9SQFaYbVVb60">
    <mxGraphModel dx="1185" dy="711" grid="1" gridSize="10" guides="1" tooltips="1" connect="1" arrows="1" fold="1" page="1" pageScale="1" pageWidth="1654" pageHeight="1169" math="0" shadow="0">
      <root>
        <mxCell id="0" />
        <mxCell id="1" parent="0" />
        <mxCell id="-r3o1vmQR9GHXH5LVRN2-32" style="edgeStyle=orthogonalEdgeStyle;rounded=0;orthogonalLoop=1;jettySize=auto;html=1;exitX=0;exitY=0.5;exitDx=0;exitDy=0;entryX=1;entryY=0.5;entryDx=0;entryDy=0;fontFamily=Avenir Medium;fontSource=https%3A%2F%2Fwcs.dev.sncf%2Favenir-medium.woff;" edge="1" parent="1" source="-r3o1vmQR9GHXH5LVRN2-31" target="-r3o1vmQR9GHXH5LVRN2-5">
          <mxGeometry relative="1" as="geometry">
            <Array as="points">
              <mxPoint x="600" y="270" />
              <mxPoint x="600" y="184" />
            </Array>
          </mxGeometry>
        </mxCell>
        <mxCell id="-r3o1vmQR9GHXH5LVRN2-30" style="edgeStyle=orthogonalEdgeStyle;rounded=0;orthogonalLoop=1;jettySize=auto;html=1;entryX=1;entryY=0.5;entryDx=0;entryDy=0;fontFamily=Avenir Medium;fontSource=https%3A%2F%2Fwcs.dev.sncf%2Favenir-medium.woff;" edge="1" parent="1" source="-r3o1vmQR9GHXH5LVRN2-29" target="-r3o1vmQR9GHXH5LVRN2-5">
          <mxGeometry relative="1" as="geometry">
            <Array as="points">
              <mxPoint x="600" y="227" />
              <mxPoint x="600" y="184" />
            </Array>
          </mxGeometry>
        </mxCell>
        <mxCell id="-r3o1vmQR9GHXH5LVRN2-2" value="" style="endArrow=none;html=1;rounded=0;dashed=1;fontFamily=Avenir Medium;fontSource=https%3A%2F%2Fwcs.dev.sncf%2Favenir-medium.woff;" edge="1" parent="1">
          <mxGeometry width="50" height="50" relative="1" as="geometry">
            <mxPoint x="40" y="240" as="sourcePoint" />
            <mxPoint x="550" y="240" as="targetPoint" />
          </mxGeometry>
        </mxCell>
        <mxCell id="-r3o1vmQR9GHXH5LVRN2-3" value="Components layer" style="text;html=1;strokeColor=none;fillColor=none;align=left;verticalAlign=middle;whiteSpace=wrap;rounded=0;fontFamily=Avenir Medium;fontSource=https%3A%2F%2Fwcs.dev.sncf%2Favenir-medium.woff;" vertex="1" parent="1">
          <mxGeometry x="40" y="170" width="110" height="27.5" as="geometry" />
        </mxCell>
        <mxCell id="-r3o1vmQR9GHXH5LVRN2-11" style="edgeStyle=orthogonalEdgeStyle;rounded=0;orthogonalLoop=1;jettySize=auto;html=1;entryX=0;entryY=0.5;entryDx=0;entryDy=0;fontFamily=Avenir Medium;fontSource=https%3A%2F%2Fwcs.dev.sncf%2Favenir-medium.woff;" edge="1" parent="1" source="-r3o1vmQR9GHXH5LVRN2-4" target="-r3o1vmQR9GHXH5LVRN2-5">
          <mxGeometry relative="1" as="geometry" />
        </mxCell>
        <mxCell id="-r3o1vmQR9GHXH5LVRN2-4" value="button.ts" style="rounded=0;whiteSpace=wrap;html=1;fillColor=#e1d5e7;strokeColor=#9673a6;fontFamily=Avenir Medium;fontSource=https%3A%2F%2Fwcs.dev.sncf%2Favenir-medium.woff;" vertex="1" parent="1">
          <mxGeometry x="160" y="170" width="60" height="27.5" as="geometry" />
        </mxCell>
        <mxCell id="-r3o1vmQR9GHXH5LVRN2-10" value="depends on" style="edgeStyle=orthogonalEdgeStyle;rounded=0;orthogonalLoop=1;jettySize=auto;html=1;entryX=0.5;entryY=0;entryDx=0;entryDy=0;fontFamily=Avenir Medium;fontSource=https%3A%2F%2Fwcs.dev.sncf%2Favenir-medium.woff;" edge="1" parent="1" source="-r3o1vmQR9GHXH5LVRN2-5" target="-r3o1vmQR9GHXH5LVRN2-6">
          <mxGeometry x="-0.1034" relative="1" as="geometry">
            <mxPoint as="offset" />
          </mxGeometry>
        </mxCell>
        <mxCell id="-r3o1vmQR9GHXH5LVRN2-5" value="button.scss" style="rounded=0;whiteSpace=wrap;html=1;fillColor=#e1d5e7;strokeColor=#9673a6;fontFamily=Avenir Medium;fontSource=https%3A%2F%2Fwcs.dev.sncf%2Favenir-medium.woff;" vertex="1" parent="1">
          <mxGeometry x="300" y="170" width="90" height="27.5" as="geometry" />
        </mxCell>
        <mxCell id="-r3o1vmQR9GHXH5LVRN2-17" value="implements" style="edgeStyle=orthogonalEdgeStyle;rounded=0;orthogonalLoop=1;jettySize=auto;html=1;entryX=0.5;entryY=1;entryDx=0;entryDy=0;exitX=0.5;exitY=0;exitDx=0;exitDy=0;fontFamily=Avenir Medium;fontSource=https%3A%2F%2Fwcs.dev.sncf%2Favenir-medium.woff;" edge="1" parent="1" source="-r3o1vmQR9GHXH5LVRN2-12" target="-r3o1vmQR9GHXH5LVRN2-6">
          <mxGeometry x="0.0015" relative="1" as="geometry">
            <mxPoint as="offset" />
          </mxGeometry>
        </mxCell>
        <mxCell id="-r3o1vmQR9GHXH5LVRN2-6" value="common semantic token name" style="rounded=0;whiteSpace=wrap;html=1;fillColor=#f5f5f5;fontColor=#333333;strokeColor=#666666;fontFamily=Avenir Medium;fontSource=https%3A%2F%2Fwcs.dev.sncf%2Favenir-medium.woff;" vertex="1" parent="1">
          <mxGeometry x="160" y="270" width="370" height="20" as="geometry" />
        </mxCell>
        <mxCell id="-r3o1vmQR9GHXH5LVRN2-7" value="Semantic Layer" style="text;html=1;strokeColor=none;fillColor=none;align=left;verticalAlign=middle;whiteSpace=wrap;rounded=0;fontFamily=Avenir Medium;fontSource=https%3A%2F%2Fwcs.dev.sncf%2Favenir-medium.woff;" vertex="1" parent="1">
          <mxGeometry x="40" y="280" width="100" height="40" as="geometry" />
        </mxCell>
        <mxCell id="-r3o1vmQR9GHXH5LVRN2-8" value="" style="endArrow=none;html=1;rounded=0;dashed=1;fontFamily=Avenir Medium;fontSource=https%3A%2F%2Fwcs.dev.sncf%2Favenir-medium.woff;" edge="1" parent="1">
          <mxGeometry width="50" height="50" relative="1" as="geometry">
            <mxPoint x="40" y="370" as="sourcePoint" />
            <mxPoint x="548" y="370" as="targetPoint" />
          </mxGeometry>
        </mxCell>
        <mxCell id="-r3o1vmQR9GHXH5LVRN2-9" value="Primitive Layer" style="text;html=1;strokeColor=none;fillColor=none;align=left;verticalAlign=middle;whiteSpace=wrap;rounded=0;fontFamily=Avenir Medium;fontSource=https%3A%2F%2Fwcs.dev.sncf%2Favenir-medium.woff;" vertex="1" parent="1">
          <mxGeometry x="40" y="400" width="110" height="20" as="geometry" />
        </mxCell>
        <mxCell id="-r3o1vmQR9GHXH5LVRN2-16" value="map to" style="edgeStyle=orthogonalEdgeStyle;rounded=0;orthogonalLoop=1;jettySize=auto;html=1;entryX=0.5;entryY=0;entryDx=0;entryDy=0;fontFamily=Avenir Medium;fontSource=https%3A%2F%2Fwcs.dev.sncf%2Favenir-medium.woff;" edge="1" parent="1" source="-r3o1vmQR9GHXH5LVRN2-12" target="-r3o1vmQR9GHXH5LVRN2-15">
          <mxGeometry x="-0.2" relative="1" as="geometry">
            <Array as="points">
              <mxPoint x="250" y="370" />
              <mxPoint x="250" y="370" />
            </Array>
            <mxPoint as="offset" />
          </mxGeometry>
        </mxCell>
        <mxCell id="-r3o1vmQR9GHXH5LVRN2-12" value="sncf-holding-semantic-mapping" style="rounded=0;whiteSpace=wrap;html=1;fillColor=#e1d5e7;strokeColor=#9673a6;fontFamily=Avenir Medium;fontSource=https%3A%2F%2Fwcs.dev.sncf%2Favenir-medium.woff;" vertex="1" parent="1">
          <mxGeometry x="160" y="330" width="180" height="20" as="geometry" />
        </mxCell>
        <mxCell id="-r3o1vmQR9GHXH5LVRN2-13" value="concept" style="rounded=0;whiteSpace=wrap;html=1;fillColor=#f5f5f5;fontColor=#333333;strokeColor=#666666;fontFamily=Avenir Medium;fontSource=https%3A%2F%2Fwcs.dev.sncf%2Favenir-medium.woff;" vertex="1" parent="1">
          <mxGeometry x="110" y="460" width="60" height="20" as="geometry" />
        </mxCell>
        <mxCell id="-r3o1vmQR9GHXH5LVRN2-14" value="file" style="rounded=0;whiteSpace=wrap;html=1;fillColor=#e1d5e7;strokeColor=#9673a6;fontFamily=Avenir Medium;fontSource=https%3A%2F%2Fwcs.dev.sncf%2Favenir-medium.woff;" vertex="1" parent="1">
          <mxGeometry x="40" y="460" width="60" height="20" as="geometry" />
        </mxCell>
        <mxCell id="-r3o1vmQR9GHXH5LVRN2-15" value="sncf-holding-primitives" style="rounded=0;whiteSpace=wrap;html=1;fillColor=#e1d5e7;strokeColor=#9673a6;fontFamily=Avenir Medium;fontSource=https%3A%2F%2Fwcs.dev.sncf%2Favenir-medium.woff;" vertex="1" parent="1">
          <mxGeometry x="160" y="400" width="180" height="20" as="geometry" />
        </mxCell>
        <mxCell id="-r3o1vmQR9GHXH5LVRN2-18" value="sncf-reseau-semantic-mapping" style="rounded=0;whiteSpace=wrap;html=1;fillColor=#e1d5e7;strokeColor=#9673a6;fontFamily=Avenir Medium;fontSource=https%3A%2F%2Fwcs.dev.sncf%2Favenir-medium.woff;" vertex="1" parent="1">
          <mxGeometry x="350" y="330" width="180" height="20" as="geometry" />
        </mxCell>
        <mxCell id="-r3o1vmQR9GHXH5LVRN2-19" value="sncf-reseau-primitives" style="rounded=0;whiteSpace=wrap;html=1;fillColor=#e1d5e7;strokeColor=#9673a6;fontFamily=Avenir Medium;fontSource=https%3A%2F%2Fwcs.dev.sncf%2Favenir-medium.woff;" vertex="1" parent="1">
          <mxGeometry x="350" y="400" width="180" height="20" as="geometry" />
        </mxCell>
        <mxCell id="-r3o1vmQR9GHXH5LVRN2-20" value="implements" style="edgeStyle=orthogonalEdgeStyle;rounded=0;orthogonalLoop=1;jettySize=auto;html=1;entryX=0.5;entryY=1;entryDx=0;entryDy=0;exitX=0.5;exitY=0;exitDx=0;exitDy=0;fontFamily=Avenir Medium;fontSource=https%3A%2F%2Fwcs.dev.sncf%2Favenir-medium.woff;" edge="1" parent="1" source="-r3o1vmQR9GHXH5LVRN2-18" target="-r3o1vmQR9GHXH5LVRN2-6">
          <mxGeometry relative="1" as="geometry">
            <mxPoint x="550" y="310" as="sourcePoint" />
            <mxPoint x="255" y="340" as="targetPoint" />
          </mxGeometry>
        </mxCell>
        <mxCell id="-r3o1vmQR9GHXH5LVRN2-21" value="map to" style="edgeStyle=orthogonalEdgeStyle;rounded=0;orthogonalLoop=1;jettySize=auto;html=1;exitX=0.5;exitY=1;exitDx=0;exitDy=0;fontFamily=Avenir Medium;fontSource=https%3A%2F%2Fwcs.dev.sncf%2Favenir-medium.woff;" edge="1" parent="1" source="-r3o1vmQR9GHXH5LVRN2-18" target="-r3o1vmQR9GHXH5LVRN2-19">
          <mxGeometry x="-0.2" relative="1" as="geometry">
            <mxPoint x="255" y="360" as="sourcePoint" />
            <mxPoint x="255" y="410" as="targetPoint" />
            <mxPoint as="offset" />
          </mxGeometry>
        </mxCell>
        <mxCell id="-r3o1vmQR9GHXH5LVRN2-22" value="sncf-reseau-specific-overwritings" style="rounded=0;whiteSpace=wrap;html=1;rotation=0;fontFamily=Avenir Medium;fontSource=https%3A%2F%2Fwcs.dev.sncf%2Favenir-medium.woff;" vertex="1" parent="1">
          <mxGeometry x="640" y="173.75" width="195" height="20" as="geometry" />
        </mxCell>
        <mxCell id="-r3o1vmQR9GHXH5LVRN2-26" value="" style="endArrow=none;html=1;rounded=0;fontFamily=Avenir Medium;fontSource=https%3A%2F%2Fwcs.dev.sncf%2Favenir-medium.woff;strokeWidth=2;" edge="1" parent="1">
          <mxGeometry width="50" height="50" relative="1" as="geometry">
            <mxPoint x="550" y="480" as="sourcePoint" />
            <mxPoint x="550" y="160" as="targetPoint" />
          </mxGeometry>
        </mxCell>
        <mxCell id="-r3o1vmQR9GHXH5LVRN2-27" value="Default (prefered) Layer Oriented System" style="text;html=1;strokeColor=none;fillColor=none;align=center;verticalAlign=middle;whiteSpace=wrap;rounded=0;fontStyle=1;fontFamily=Avenir Medium;fontSource=https%3A%2F%2Fwcs.dev.sncf%2Favenir-medium.woff;" vertex="1" parent="1">
          <mxGeometry x="208.75" y="460" width="262.5" height="20" as="geometry" />
        </mxCell>
        <mxCell id="-r3o1vmQR9GHXH5LVRN2-28" value="Exceptional Customisation System" style="text;html=1;strokeColor=none;fillColor=none;align=center;verticalAlign=middle;whiteSpace=wrap;rounded=0;fontStyle=1;fontFamily=Avenir Medium;fontSource=https%3A%2F%2Fwcs.dev.sncf%2Favenir-medium.woff;" vertex="1" parent="1">
          <mxGeometry x="606.25" y="460" width="262.5" height="20" as="geometry" />
        </mxCell>
        <mxCell id="-r3o1vmQR9GHXH5LVRN2-29" value="sncf-holding-specific-overwritings" style="rounded=0;whiteSpace=wrap;html=1;rotation=0;fontFamily=Avenir Medium;fontSource=https%3A%2F%2Fwcs.dev.sncf%2Favenir-medium.woff;" vertex="1" parent="1">
          <mxGeometry x="640" y="217" width="195" height="20" as="geometry" />
        </mxCell>
        <mxCell id="-r3o1vmQR9GHXH5LVRN2-31" value="..." style="rounded=0;whiteSpace=wrap;html=1;rotation=0;fontFamily=Avenir Medium;fontSource=https%3A%2F%2Fwcs.dev.sncf%2Favenir-medium.woff;" vertex="1" parent="1">
          <mxGeometry x="640" y="260" width="195" height="20" as="geometry" />
        </mxCell>
        <mxCell id="-r3o1vmQR9GHXH5LVRN2-23" value="overwrites" style="edgeStyle=orthogonalEdgeStyle;rounded=0;orthogonalLoop=1;jettySize=auto;html=1;entryX=1;entryY=0.5;entryDx=0;entryDy=0;fontFamily=Avenir Medium;fontSource=https%3A%2F%2Fwcs.dev.sncf%2Favenir-medium.woff;" edge="1" parent="1" source="-r3o1vmQR9GHXH5LVRN2-22" target="-r3o1vmQR9GHXH5LVRN2-5">
          <mxGeometry x="0.0479" relative="1" as="geometry">
            <Array as="points">
              <mxPoint x="640" y="184" />
            </Array>
            <mxPoint as="offset" />
          </mxGeometry>
        </mxCell>
        <mxCell id="-r3o1vmQR9GHXH5LVRN2-33" value="" style="endArrow=none;html=1;rounded=0;fontFamily=Avenir Medium;fontSource=https%3A%2F%2Fwcs.dev.sncf%2Favenir-medium.woff;" edge="1" parent="1">
          <mxGeometry width="50" height="50" relative="1" as="geometry">
            <mxPoint x="40" y="440" as="sourcePoint" />
            <mxPoint x="880" y="440" as="targetPoint" />
          </mxGeometry>
        </mxCell>
        <mxCell id="-r3o1vmQR9GHXH5LVRN2-34" value="WCS - Design Token Principles Diagram" style="text;html=1;align=center;verticalAlign=middle;whiteSpace=wrap;rounded=0;fontStyle=1;labelBorderColor=none;strokeColor=default;fontFamily=Avenir Medium;fontSource=https%3A%2F%2Fwcs.dev.sncf%2Favenir-medium.woff;" vertex="1" parent="1">
          <mxGeometry x="40" y="80" width="840" height="30" as="geometry" />
        </mxCell>
      </root>
    </mxGraphModel>
  </diagram>
</mxfile>
